<?xml version="1.0" encoding="UTF-8" standalone="no"?>
<!-- Created with Inkscape (http://www.inkscape.org/) -->

<svg
   width="53.0606mm"
   height="22.1488mm"
   viewBox="25 0 53.06108 22.149"
   version="1.1"
   id="svg1"
   inkscape:version="1.4.2 (ebf0e940d0, 2025-05-08)"
   sodipodi:docname="TBD.svg"
   xmlns:inkscape="http://www.inkscape.org/namespaces/inkscape"
   xmlns:sodipodi="http://sodipodi.sourceforge.net/DTD/sodipodi-0.dtd"
   xmlns="http://www.w3.org/2000/svg"
   xmlns:svg="http://www.w3.org/2000/svg">
  <sodipodi:namedview
     id="namedview1"
     pagecolor="#505050"
     bordercolor="#ffffff"
     borderopacity="1"
     inkscape:showpageshadow="0"
     inkscape:pageopacity="0"
     inkscape:pagecheckerboard="1"
     inkscape:deskcolor="#505050"
     inkscape:document-units="mm"
     inkscape:zoom="2.8284271"
     inkscape:cx="59.39697"
     inkscape:cy="14.142136"
     inkscape:window-width="1920"
     inkscape:window-height="1057"
     inkscape:window-x="1920"
     inkscape:window-y="0"
     inkscape:window-maximized="1"
     inkscape:current-layer="svg1" />
  <defs
     id="defs1" />
  <path
     style="font-size:25.4px;stroke-width:0.264583"
     d="M 5.6895995,22.1488 H 0 V 0 h 5.6895995 v 1.8288 h -3.5052 V 20.32 h 3.5052 z"
     id="[" />
  <path
     style="font-size:25.4px;stroke-width:0.264583"
     d="m 13.030212,18.67748 q 0.508,0 1.0414,-0.0762 0.5334,-0.1016 0.8636,-0.2032 v 1.7018 q -0.3556,0.1778 -1.016,0.2794 -0.6604,0.127 -1.27,0.127 -1.0668,0 -1.9812,-0.3556 -0.8889995,-0.381 -1.4477995,-1.2954 -0.5588,-0.9144 -0.5588,-2.5654 v -7.9248 h -1.9304 v -1.0668 l 1.9558,-0.889 0.889,-2.8956 h 1.3207995 v 3.1242 h 3.937 v 1.7272 h -3.937 v 7.874 q 0,1.2446 0.5842,1.8542 0.6096,0.5842 1.5494,0.5842 z"
     id="t" />
  <path
     style="font-size:25.4px;stroke-width:0.264583"
     d="m 19.888212,5.64728 q 0,0.8636 -0.0508,1.6256 -0.0254,0.7366 -0.0762,1.1684 h 0.127 q 0.5842,-0.8636 1.6002,-1.4478 1.016,-0.5842 2.6162,-0.5842 2.54,0 4.064,1.778 1.5494,1.7526001 1.5494,5.2578 0,3.5052 -1.5494,5.2832 -1.5494,1.778 -4.064,1.778 -1.6002,0 -2.6162,-0.5842 -1.016,-0.5842 -1.6002,-1.397 h -0.1778 l -0.4572,1.7272 h -1.6002 v -19.304 h 2.2352 z m 3.8354,2.6162 q -2.159,0 -2.9972,1.2446001 -0.8382,1.2445999 -0.8382,3.8607999 v 0.1016 q 0,2.5146 0.8128,3.8608 0.8382,1.3208 3.0734,1.3208 1.8288,0 2.7178,-1.3462 0.9144,-1.3462 0.9144,-3.8862 0,-5.1562 -3.683,-5.1562 z"
     id="b" />
  <path
     style="font-size:25.4px;stroke-width:0.264583"
     d="m 38.100006,20.50628 q -2.54,0 -4.064,-1.7526 -1.523999,-1.778 -1.523999,-5.2832 0,-3.5051999 1.523999,-5.2832 1.5494,-1.8034 4.0894,-1.8034 1.5748,0 2.5654,0.5842 1.016,0.5842 1.651,1.4224 h 0.1524 q -0.0254,-0.3302 -0.1016,-0.9652 -0.0508,-0.6604 -0.0508,-1.0414 v -5.4356 h 2.2352 v 19.304 h -1.8034 l -0.3302,-1.8288 h -0.1016 q -0.6096,0.8636 -1.6256,1.4732 -1.016,0.6096 -2.6162,0.6096 z m 0.3556,-1.8542 q 2.159,0 3.0226,-1.1684 0.889,-1.1938 0.889,-3.5814 v -0.4064 q 0,-2.54 -0.8382,-3.8861999 -0.8382,-1.3716001 -3.0988,-1.3716001 -1.8034,0 -2.7178,1.4478001 -0.889,1.4223999 -0.889,3.8353999 0,2.4384 0.889,3.7846 0.9144,1.3462 2.7432,1.3462 z"
     id="d" />
  <path
     style="font-size:25.4px;stroke-width:0.264583"
     d="m 47.371001,20.32 h 3.5052 V 1.8288 h -3.5052 V 0 h 5.6896 v 22.1488 h -5.6896 z"
     id="]" />
</svg>
